<?xml version="1.0" encoding="utf-8"?>
<!-- Generator: Adobe Illustrator 19.0.0, SVG Export Plug-In . SVG Version: 6.00 Build 0)  -->
<svg version="1.1" id="Capa_1" xmlns="http://www.w3.org/2000/svg" xmlns:xlink="http://www.w3.org/1999/xlink" x="0px" y="0px"
	 viewBox="-49 141 512 512" style="enable-background:new -49 141 512 512;" xml:space="preserve">
<style type="text/css">
	.st0{fill:#FF4040;}
	.st1{fill:#FFFFFF;}
</style>
<circle class="st0" cx="205.7" cy="389" r="235"/>
<g>
	<g>
		<path class="st0" d="M207,653c141.2,0,256-114.8,256-256S348.2,141,207,141S-49,255.8-49,397S65.8,653,207,653z M207,172.5
			c123.8,0,224.5,100.7,224.5,224.5S330.8,621.5,207,621.5S-17.5,520.8-17.5,397S83.2,172.5,207,172.5z"/>
		<circle class="st1" cx="207" cy="484.9" r="26.3"/>
		<path class="st1" d="M205.7,419.4c8.7,0,15.8-7.1,15.8-15.8L233.3,269c0-8.7-19-15-27.7-15s-30.7,8.3-30.7,17l14.9,132.6
			C189.9,412.3,197,419.4,205.7,419.4z"/>
	</g>
</g>
</svg>
